<svg width="24" height="24" viewBox="0 0 24 24" fill="none" xmlns="http://www.w3.org/2000/svg">
    <path fill-rule="evenodd" clip-rule="evenodd"
          d="M6 18C3.79086 18 2 16.2091 2 14C2 11.9849 3.49201 10.3148 5.43098 10.0399C6.40269 9.90215 7.27897 9.32576 7.77933 8.45082C8.61913 6.98234 10.196 6 11.9999 6C14.4283 6 16.4437 7.78408 16.8006 10.1127C16.9683 11.2066 17.9103 12 19 12C20.6569 12 22 13.3431 22 15C22 16.6569 20.6569 18 19 18H6ZM0 14C0 17.3137 2.68629 20 6 20H19C21.7614 20 24 17.7614 24 15C24 12.2386 21.7614 10 19 10C18.8894 10 18.7943 9.91903 18.7775 9.80968C18.2732 6.51977 15.4308 4 11.9999 4C9.44965 4 7.22458 5.39215 6.04319 7.45794C5.85601 7.78524 5.52356 8.00679 5.15026 8.05971C2.23897 8.47243 0 10.9747 0 14ZM17.0318 14.0008C16.0203 14.0008 15.168 13.2456 15.0463 12.2414L14.8349 10.4965C14.6603 9.09047 13.4544 8 11.9999 8C10.8521 8 9.85409 8.6769 9.39899 9.67043L8.91035 10.7973C8.59329 11.5284 7.8724 12.0016 7.07545 12.0016H5.91804C4.85299 12.0431 4 12.9229 4 14C4 15.1046 4.89543 16 6 16H19C19.5523 16 20 15.5523 20 15C20 14.4477 19.5523 14 19 14C18.9858 14 18.9719 14.0003 18.9582 14.0008H17.0318Z"
          fill="#D7FFEC"/>
</svg>
