<svg width="24" height="24" viewBox="0 0 24 24" fill="none" xmlns="http://www.w3.org/2000/svg">
    <path fill-rule="evenodd" clip-rule="evenodd"
          d="M3.49951 9.5C3.49951 11.433 5.06651 13 6.99951 13H17.9995C19.3802 13 20.4995 11.8807 20.4995 10.5C20.4995 9.11929 19.3802 8 17.9995 8C17.1107 8 16.3116 7.36962 16.1459 6.45576C15.7896 4.49039 14.067 3 11.9994 3C10.5281 3 9.23176 3.75285 8.4758 4.90137C8.05597 5.53922 7.37278 5.94202 6.63194 6.01895C4.87243 6.20166 3.49951 7.69146 3.49951 9.5ZM6.99951 14.5C4.23809 14.5 1.99951 12.2614 1.99951 9.5C1.99951 6.91503 3.96114 4.78822 6.47701 4.52697C6.77968 4.49555 7.05555 4.33085 7.22285 4.07668C8.24448 2.52453 10.0023 1.5 11.9994 1.5C14.8051 1.5 17.1384 3.52194 17.6218 6.18814C17.6546 6.36886 17.8158 6.5 17.9995 6.5C20.2087 6.5 21.9995 8.29086 21.9995 10.5C21.9995 12.7091 20.2087 14.5 17.9995 14.5H6.99951ZM7 16.5C7.55228 16.5 8 16.9477 8 17.5C8 18.0523 7.55228 18.5 7 18.5H3C2.44772 18.5 2 18.0523 2 17.5C2 16.9477 2.44772 16.5 3 16.5H7ZM10 17.5C10 16.9477 10.4477 16.5 11 16.5H21C21.5523 16.5 22 16.9477 22 17.5C22 18.0523 21.5523 18.5 21 18.5H11C10.4477 18.5 10 18.0523 10 17.5ZM11 20.5C11.5523 20.5 12 20.9477 12 21.5C12 22.0523 11.5523 22.5 11 22.5H3C2.44772 22.5 2 22.0523 2 21.5C2 20.9477 2.44772 20.5 3 20.5H11ZM14 21.5C14 20.9477 14.4477 20.5 15 20.5H21C21.5523 20.5 22 20.9477 22 21.5C22 22.0523 21.5523 22.5 21 22.5H15C14.4477 22.5 14 22.0523 14 21.5ZM4.99902 9.5C4.99902 10.6046 5.89445 11.5 6.99902 11.5H17.999C18.5513 11.5 18.999 11.0523 18.999 10.5C18.999 9.94772 18.5513 9.5 17.999 9.5C16.4051 9.5 14.9681 8.37037 14.6695 6.72337C14.4402 5.45884 13.3284 4.5 11.999 4.5C11.0533 4.5 10.2186 4.98117 9.72826 5.72607C9.05589 6.74759 7.9654 7.3885 6.78637 7.51093C5.78323 7.61509 4.99902 8.4679 4.99902 9.5Z"
          fill="#D7FFEC"/>
</svg>
