<svg width="24" height="24" viewBox="0 0 24 24" fill="none" xmlns="http://www.w3.org/2000/svg">
    <path fill-rule="evenodd" clip-rule="evenodd"
          d="M18.2483 4.19237C18.9051 4.7188 19.4941 5.32642 20 6C19.2037 6 18.4437 6.15512 17.7484 6.43678C15.5504 7.32726 14 9.48257 14 12C14 14.5174 15.5504 16.6727 17.7484 17.5632C18.4437 17.8449 19.2037 18 20 18C19.4941 18.6736 18.9051 19.2812 18.2483 19.8076C16.5367 21.1795 14.3643 22 12 22C6.47715 22 2 17.5228 2 12C2 6.47715 6.47715 2 12 2C14.3643 2 16.5367 2.82053 18.2483 4.19237ZM12 4C13.4571 4 14.8231 4.38892 16.0002 5.07015C13.6089 6.45336 12 9.03879 12 12C12 14.9612 13.6089 17.5466 16.0002 18.9299C14.8231 19.6111 13.4571 20 12 20C7.58172 20 4 16.4183 4 12C4 7.58172 7.58172 4 12 4ZM11.9993 6C8.68589 6.00039 6 8.68653 6 12C6 15.3135 8.68589 17.9996 11.9993 18C10.7439 16.3287 10 14.2512 10 12C10 9.74879 10.7439 7.67132 11.9993 6Z"
          fill="#D7FFEC"/>
</svg>
