<svg width="24" height="24" viewBox="0 0 24 24" fill="none" xmlns="http://www.w3.org/2000/svg">
    <path fill-rule="evenodd" clip-rule="evenodd"
          d="M17 10C18.6569 10 20 8.65685 20 7C20 5.34315 17 2 17 2C17 2 14 5.34315 14 7C14 8.65685 15.3431 10 17 10ZM6.86709 13.6687C6.23223 14.8392 6 15.6247 6 16C6 18.2091 7.79086 20 10 20C12.2091 20 14 18.2091 14 16C14 15.6247 13.7678 14.8392 13.1329 13.6687C12.5408 12.5769 11.7428 11.4064 10.9548 10.3498C10.6233 9.90525 10.2989 9.48792 10 9.11335C9.70108 9.48792 9.37667 9.90525 9.04518 10.3498C8.2572 11.4064 7.45924 12.5769 6.86709 13.6687ZM8.69516 7.54461C8.3174 8.01053 7.88626 8.55828 7.44189 9.15417C5.81011 11.3424 4 14.1799 4 16C4 19.3137 6.68629 22 10 22C13.3137 22 16 19.3137 16 16C16 14.1799 14.1899 11.3424 12.5581 9.15417C12.1137 8.55828 11.6826 8.01054 11.3048 7.54461C10.5442 6.60646 10 6 10 6C10 6 9.45579 6.60646 8.69516 7.54461ZM8.62498 14.6222C9.00022 13.9303 9.48043 13.1822 9.99982 12.4412C10.5192 13.1822 10.9994 13.9303 11.3747 14.6222C11.6374 15.1066 11.8136 15.4997 11.9172 15.7949C11.9684 15.9407 11.9902 16.0298 11.9987 16.0686C11.9625 17.1414 11.0814 18 9.99982 18C8.91821 18 8.03713 17.1414 8.00098 16.0686C8.00948 16.0298 8.03126 15.9407 8.08244 15.7949C8.18602 15.4997 8.36223 15.1066 8.62498 14.6222Z"
          fill="#D7FFEC"/>
</svg>
