<svg width="24" height="24" viewBox="0 0 24 24" fill="none" xmlns="http://www.w3.org/2000/svg">
    <path fill-rule="evenodd" clip-rule="evenodd"
          d="M3.29289 6.29289C3.68342 5.90237 4.31658 5.90237 4.70711 6.29289L6.70711 8.29289C6.89464 8.48043 7 8.73478 7 9V11H8C8.55228 11 9 11.4477 9 12C9 12.5523 8.55228 13 8 13H7V15C7 15.2652 6.89464 15.5196 6.70711 15.7071L4.70711 17.7071C4.31658 18.0976 3.68342 18.0976 3.29289 17.7071C2.90237 17.3166 2.90237 16.6834 3.29289 16.2929L5 14.5858V13H4.41421L2.70711 14.7071C2.31658 15.0976 1.68342 15.0976 1.29289 14.7071C0.902369 14.3166 0.902369 13.6834 1.29289 13.2929L2.58579 12L1.29289 10.7071C0.902369 10.3166 0.902369 9.68342 1.29289 9.29289C1.68342 8.90237 2.31658 8.90237 2.70711 9.29289L4.41421 11H5V9.41421L3.29289 7.70711C2.90237 7.31658 2.90237 6.68342 3.29289 6.29289Z"
          fill="#D7FFEC"/>
    <path fill-rule="evenodd" clip-rule="evenodd"
          d="M20.7071 6.29289C20.3166 5.90237 19.6834 5.90237 19.2929 6.29289L17.2929 8.29289C17.1054 8.48043 17 8.73478 17 9V11H16C15.4477 11 15 11.4477 15 12C15 12.5523 15.4477 13 16 13H17V15C17 15.2652 17.1054 15.5196 17.2929 15.7071L19.2929 17.7071C19.6834 18.0976 20.3166 18.0976 20.7071 17.7071C21.0976 17.3166 21.0976 16.6834 20.7071 16.2929L19 14.5858V13H19.5858L21.2929 14.7071C21.6834 15.0976 22.3166 15.0976 22.7071 14.7071C23.0976 14.3166 23.0976 13.6834 22.7071 13.2929L21.4142 12L22.7071 10.7071C23.0976 10.3166 23.0976 9.68342 22.7071 9.29289C22.3166 8.90237 21.6834 8.90237 21.2929 9.29289L19.5858 11H19V9.41421L20.7071 7.70711C21.0976 7.31658 21.0976 6.68342 20.7071 6.29289Z"
          fill="#D7FFEC"/>
    <path fill-rule="evenodd" clip-rule="evenodd"
          d="M17.7071 3.29289C18.0976 3.68342 18.0976 4.31658 17.7071 4.70711L15.7071 6.70711C15.5196 6.89464 15.2652 7 15 7L13 7L13 8C13 8.55228 12.5523 9 12 9C11.4477 9 11 8.55228 11 8L11 7L9 7C8.73478 7 8.48043 6.89464 8.29289 6.70711L6.29289 4.70711C5.90237 4.31658 5.90237 3.68342 6.29289 3.29289C6.68342 2.90237 7.31658 2.90237 7.70711 3.29289L9.41421 5L11 5L11 4.41421L9.29289 2.70711C8.90237 2.31658 8.90237 1.68342 9.29289 1.29289C9.68342 0.902369 10.3166 0.902369 10.7071 1.29289L12 2.58579L13.2929 1.29289C13.6834 0.902369 14.3166 0.902369 14.7071 1.29289C15.0976 1.68342 15.0976 2.31658 14.7071 2.70711L13 4.41421L13 5L14.5858 5L16.2929 3.29289C16.6834 2.90237 17.3166 2.90237 17.7071 3.29289Z"
          fill="#D7FFEC"/>
    <path fill-rule="evenodd" clip-rule="evenodd"
          d="M12 15C12.5523 15 13 15.4477 13 16V17L15 17C15.2652 17 15.5196 17.1054 15.7071 17.2929L17.7071 19.2929C18.0976 19.6834 18.0976 20.3166 17.7071 20.7071C17.3166 21.0976 16.6834 21.0976 16.2929 20.7071L14.5858 19H13V19.5858L14.7071 21.2929C15.0976 21.6834 15.0976 22.3166 14.7071 22.7071C14.3166 23.0976 13.6834 23.0976 13.2929 22.7071L12 21.4142L10.7071 22.7071C10.3166 23.0976 9.68342 23.0976 9.29289 22.7071C8.90237 22.3166 8.90237 21.6834 9.29289 21.2929L11 19.5858V19L9.41421 19L7.70711 20.7071C7.31658 21.0976 6.68342 21.0976 6.29289 20.7071C5.90237 20.3166 5.90237 19.6834 6.29289 19.2929L8.29289 17.2929C8.48043 17.1054 8.73478 17 9 17L11 17V16C11 15.4477 11.4477 15 12 15Z"
          fill="#D7FFEC"/>
    <rect x="10" y="10" width="4" height="4" rx="2" fill="#D7FFEC"/>
</svg>
