<svg width="24" height="24" viewBox="0 0 24 24" fill="none" xmlns="http://www.w3.org/2000/svg">
    <path fill-rule="evenodd" clip-rule="evenodd"
          d="M7 12.5C5.067 12.5 3.5 10.933 3.5 9C3.5 7.1915 4.87287 5.70171 6.63232 5.51896C7.37314 5.44202 8.0563 5.03921 8.47612 4.40138C9.23208 3.25285 10.5284 2.5 11.9998 2.5C14.0673 2.5 15.7898 3.99034 16.1462 5.95565C16.312 6.86959 17.1112 7.5 18 7.5C19.3807 7.5 20.5 8.61929 20.5 10C20.5 11.3807 19.3807 12.5 18 12.5H7ZM2 9C2 11.7614 4.23858 14 7 14H18C20.2091 14 22 12.2091 22 10C22 7.79086 20.2091 6 18 6C17.8162 6 17.6549 5.8688 17.6221 5.68799C17.1387 3.02186 14.8053 1 11.9998 1C10.0026 1 8.24479 2.02454 7.22317 3.57669C7.05588 3.83086 6.78001 3.99555 6.47736 4.02699C3.96156 4.2883 2 6.41507 2 9ZM7.08791 10.9982C7.05895 10.9994 7.02964 11 7 11C5.89543 11 5 10.1046 5 9C5 7.96792 5.78418 7.11513 6.78729 7.01094C7.96628 6.88848 9.05672 6.24757 9.72907 5.22607C10.2194 4.48117 11.0541 4 11.9998 4C13.3292 4 14.441 4.95881 14.6703 6.2233C14.969 7.87038 16.4061 9 18 9C18.5523 9 19 9.44772 19 10C19 10.5523 18.5523 11 18 11C17.9665 11 17.9342 10.9985 17.903 10.9956C17.6971 10.9765 17.4944 10.9786 17.2969 11H7.3833C7.28595 10.9946 7.18741 10.994 7.08791 10.9982ZM9 19.5V15.5H16L14 17.5H17L12 22.5L11.5 23V19.5H9Z"
          fill="#D7FFEC"/>
</svg>
