<svg width="24" height="24" viewBox="0 0 24 24" fill="none" xmlns="http://www.w3.org/2000/svg">
    <path fill-rule="evenodd" clip-rule="evenodd"
          d="M16 11.8787L13.0607 8.93934L12 7.87868L10.9393 8.93934L8 11.8787L7.93934 11.9393L7.87868 12H6C4.89543 12 4 11.1046 4 10C4 8.92288 4.85299 8.04307 5.91804 8.00159H7.07545C7.8724 8.00159 8.59329 7.52844 8.91035 6.79727L9.39899 5.67043C9.85409 4.6769 10.8521 4 11.9999 4C13.4544 4 14.6603 5.09047 14.8349 6.49653L15.0463 8.24142C15.168 9.24558 16.0203 10.0008 17.0318 10.0008H18.9582C18.9719 10.0003 18.9858 10 19 10C19.5523 10 20 10.4477 20 11C20 11.5523 19.5523 12 19 12H16.1213L16.0607 11.9393L16 11.8787ZM18.1213 14H19C20.6569 14 22 12.6569 22 11C22 9.34315 20.6569 8 19 8C17.9103 8 16.9683 7.20662 16.8006 6.1127C16.4437 3.78408 14.4283 2 11.9999 2C10.196 2 8.61913 2.98234 7.77933 4.45082C7.27897 5.32576 6.40269 5.90215 5.43098 6.03991C3.49201 6.31479 2 7.98487 2 10C2 12.1691 3.7266 13.935 5.88043 13.9982L4.1646 15.7141C1.74864 14.9387 0 12.6735 0 10C0 6.97475 2.23897 4.47243 5.15026 4.05971C5.52356 4.00679 5.85601 3.78524 6.04319 3.45794C7.22458 1.39215 9.44965 0 11.9999 0C15.4308 0 18.2732 2.51977 18.7775 5.80968C18.7943 5.91903 18.8894 6 19 6C21.7614 6 24 8.23858 24 11C24 13.4127 22.2911 15.4263 20.0177 15.8964L18.1213 14Z"
          fill="black"/>
    <path fill-rule="evenodd" clip-rule="evenodd"
          d="M15 13L12 10L9 13L12 16L15 13ZM11 17L8 14L5 17L8 20L11 17ZM12 18L15 21L12 24L9 21L12 18ZM19 17L16 14L13 17L16 20L19 17ZM13 13C13 13.5523 12.5523 14 12 14C11.4477 14 11 13.5523 11 13C11 12.4477 11.4477 12 12 12C12.5523 12 13 12.4477 13 13ZM16 18C16.5523 18 17 17.5523 17 17C17 16.4477 16.5523 16 16 16C15.4477 16 15 16.4477 15 17C15 17.5523 15.4477 18 16 18ZM13 21C13 21.5523 12.5523 22 12 22C11.4477 22 11 21.5523 11 21C11 20.4477 11.4477 20 12 20C12.5523 20 13 20.4477 13 21ZM8 18C8.55228 18 9 17.5523 9 17C9 16.4477 8.55228 16 8 16C7.44772 16 7 16.4477 7 17C7 17.5523 7.44772 18 8 18Z"
          fill="black"/>
</svg>
