<svg width="24" height="24" viewBox="0 0 24 24" fill="none" xmlns="http://www.w3.org/2000/svg">
    <path fill-rule="evenodd" clip-rule="evenodd"
          d="M7 19C5.89543 19 5 18.1046 5 17C5 15.9679 5.78418 15.1151 6.78729 15.0109C7.96628 14.8885 9.05672 14.2476 9.72907 13.2261C10.2194 12.4812 11.0541 12 11.9998 12C13.3292 12 14.441 12.9588 14.6703 14.2233C14.969 15.8704 16.4061 17 18 17C18.5523 17 19 17.4477 19 18C19 18.5523 18.5523 19 18 19H7Z"
          fill="black"/>
    <path fill-rule="evenodd" clip-rule="evenodd"
          d="M20.6254 13.1663C21.489 12.0022 21.9998 10.5607 21.9998 9C21.9998 5.13401 18.8658 2 14.9998 2C11.2325 2 8.1603 4.976 8.00586 8.70532C9.14876 7.94437 10.5219 7.5 11.999 7.5C15.2382 7.5 17.9765 9.6335 18.8894 12.5717C19.5089 12.6725 20.0937 12.8768 20.6254 13.1663ZM7 20.5C5.067 20.5 3.5 18.933 3.5 17C3.5 15.1915 4.87287 13.7017 6.63232 13.519C7.37314 13.442 8.0563 13.0392 8.47612 12.4014C9.23208 11.2529 10.5284 10.5 11.9998 10.5C14.0673 10.5 15.7898 11.9903 16.1462 13.9556C16.312 14.8696 17.1112 15.5 18 15.5C19.3807 15.5 20.5 16.6193 20.5 18C20.5 19.3807 19.3807 20.5 18 20.5H7ZM2 17C2 19.7614 4.23858 22 7 22H18C20.2091 22 22 20.2091 22 18C22 15.7909 20.2091 14 18 14C17.8162 14 17.6549 13.8688 17.6221 13.688C17.1387 11.0219 14.8053 9 11.9998 9C10.0026 9 8.24479 10.0245 7.22317 11.5767C7.05588 11.8309 6.78001 11.9956 6.47736 12.027C3.96156 12.2883 2 14.4151 2 17Z"
          fill="black"/>
</svg>
