<svg width="24" height="24" viewBox="0 0 24 24" fill="none" xmlns="http://www.w3.org/2000/svg">
    <path fill-rule="evenodd" clip-rule="evenodd"
          d="M7.15111 12.4968C7.1011 12.4989 7.05072 12.5 7 12.5C5.067 12.5 3.5 10.933 3.5 9C3.5 7.1915 4.87287 5.70171 6.63232 5.51896C7.37314 5.44202 8.0563 5.03921 8.47612 4.40138C9.23208 3.25285 10.5284 2.5 11.9998 2.5C14.0673 2.5 15.7898 3.99034 16.1462 5.95565C16.312 6.86959 17.1112 7.5 18 7.5C19.3807 7.5 20.5 8.61929 20.5 10C20.5 11.3807 19.3807 12.5 18 12.5C17.9202 12.5 17.8417 12.4963 17.7646 12.4892C17.6383 12.4775 17.5144 12.4816 17.3948 12.5H7.3329C7.27318 12.4954 7.21251 12.4942 7.15111 12.4968ZM7.21667 13.9977C7.21667 13.9965 7.2156 13.9954 7.21431 13.9955C7.19346 13.9964 7.17256 13.9971 7.15164 13.9977C7.10128 13.9992 7.05073 14 7 14C6.94928 14 6.89873 13.9992 6.84836 13.9977C4.15709 13.9176 2 11.7107 2 9C2 6.41508 3.96156 4.2883 6.47736 4.02699C6.78001 3.99555 7.05588 3.83086 7.22317 3.57669C8.24479 2.02454 10.0026 1 11.9998 1C14.8053 1 17.1387 3.02186 17.6221 5.68799C17.6549 5.8688 17.8162 6 18 6C20.2091 6 22 7.79086 22 10C22 12.1201 20.3506 13.855 18.265 13.9914C18.1774 13.9971 18.089 14 18 14C17.911 14 17.8226 13.9971 17.735 13.9914C17.6986 13.989 17.6623 13.9861 17.6261 13.9828C17.621 13.9823 17.6167 13.9863 17.6167 13.9914C17.6167 13.9961 17.6128 14 17.608 14H7.21892C7.21768 14 7.21667 13.999 7.21667 13.9977ZM7.08791 10.9982C7.05895 10.9994 7.02964 11 7 11C5.89543 11 5 10.1046 5 9C5 7.96792 5.78418 7.11513 6.78729 7.01094C7.96628 6.88848 9.05672 6.24757 9.72907 5.22607C10.2194 4.48117 11.0541 4 11.9998 4C13.3292 4 14.441 4.95881 14.6703 6.2233C14.969 7.87038 16.4061 9 18 9C18.5523 9 19 9.44772 19 10C19 10.5523 18.5523 11 18 11C17.9665 11 17.9342 10.9985 17.903 10.9956C17.6971 10.9765 17.4944 10.9786 17.2969 11H7.3833C7.28595 10.9946 7.18741 10.994 7.08791 10.9982ZM9 19.5V15.5H16L14 17.5H17L12 22.5L11.5 23V19.5H9Z"
          fill="black"/>
</svg>
