<svg width="24" height="24" viewBox="0 0 24 24" fill="none" xmlns="http://www.w3.org/2000/svg">
    <path fill-rule="evenodd" clip-rule="evenodd"
          d="M17.5776 6.41752V7.92027C17.5776 8.98113 17.999 9.99855 18.7492 10.7487L19.9977 11.9973L18.7492 13.2458C17.999 13.996 17.5776 15.0134 17.5776 16.0743L17.5776 17.577H16.0743C15.0134 17.577 13.996 17.9984 13.2459 18.7486L11.9974 19.997L10.749 18.7486C9.99882 17.9984 8.98141 17.577 7.92054 17.577H6.41828V16.0772C6.41828 15.0163 5.99686 13.9989 5.24671 13.2488L3.99707 11.9991L5.24801 10.7482C5.99815 9.99803 6.41958 8.98062 6.41958 7.91975V6.4188H7.9198C8.98067 6.4188 9.99808 5.99737 10.7482 5.24722L11.9982 3.99726L13.2469 5.24595C13.997 5.9961 15.0144 6.41752 16.0753 6.41752H17.5776ZM4.41958 7.91975C4.41958 8.45018 4.20887 8.95889 3.8338 9.33396L2.58286 10.5849C1.80181 11.366 1.80181 12.6323 2.58286 13.4133L3.8325 14.663C4.20757 15.038 4.41828 15.5468 4.41828 16.0772V17.577C4.41828 18.6816 5.31371 19.577 6.41828 19.577H7.92054C8.45097 19.577 8.95968 19.7877 9.33475 20.1628L10.5832 21.4112C11.3643 22.1923 12.6306 22.1923 13.4116 21.4112L14.6601 20.1628C15.0352 19.7877 15.5439 19.577 16.0743 19.577H17.5776C18.6822 19.577 19.5776 18.6816 19.5776 17.577V16.0743C19.5776 15.5438 19.7883 15.0351 20.1634 14.66L21.412 13.4115C22.193 12.6304 22.193 11.3641 21.412 10.583L20.1634 9.33448C19.7883 8.95941 19.5776 8.4507 19.5776 7.92027V6.41752C19.5776 5.31295 18.6822 4.41752 17.5776 4.41752H16.0753C15.5449 4.41752 15.0362 4.20681 14.6611 3.83174L13.4124 2.58305C12.6314 1.802 11.365 1.802 10.584 2.58305L9.33401 3.83301C8.95894 4.20808 8.45023 4.4188 7.9198 4.4188H6.41958C5.31501 4.4188 4.41958 5.31423 4.41958 6.4188V7.91975ZM15.5966 8.39842C14.2565 8.29122 12.988 7.73635 11.9982 6.81952C11.0086 7.73667 9.74037 8.29191 8.40032 8.39953C8.29281 9.74032 7.7372 11.0093 6.81934 11.9992C7.73613 12.9885 8.2912 14.2564 8.39891 15.5961C9.73906 15.7032 11.0075 16.2581 11.9974 17.1748C12.9874 16.2579 14.2562 15.703 15.5966 15.596C15.7037 14.2558 16.2586 12.9872 17.1755 11.9973C16.2586 11.0073 15.7037 9.73872 15.5966 8.39842Z"
          fill="black"/>
</svg>
