<svg width="24" height="24" viewBox="0 0 24 24" fill="none" xmlns="http://www.w3.org/2000/svg">
    <path fill-rule="evenodd" clip-rule="evenodd"
          d="M3.49951 9C3.49951 10.8924 5.00142 12.434 6.87827 12.4979C6.79489 12.7331 6.74951 12.9863 6.74951 13.25C6.74951 13.5124 6.79444 13.7644 6.87703 13.9985C4.17219 13.9335 1.99951 11.7205 1.99951 9C1.99951 6.41503 3.96114 4.28822 6.47701 4.02697C6.77968 3.99555 7.05555 3.83085 7.22285 3.57668C8.24448 2.02453 10.0023 1 11.9994 1C14.8051 1 17.1384 3.02194 17.6218 5.68814C17.6546 5.86886 17.8158 6 17.9995 6C20.2087 6 21.9995 7.79086 21.9995 10C21.9995 10.5463 21.89 11.067 21.6917 11.5414C21.2674 11.284 20.7879 11.1084 20.2752 11.0365C20.4192 10.7207 20.4995 10.3697 20.4995 10C20.4995 8.61929 19.3802 7.5 17.9995 7.5C17.1107 7.5 16.3116 6.86962 16.1459 5.95576C15.7896 3.99039 14.067 2.5 11.9994 2.5C10.5281 2.5 9.23176 3.25285 8.4758 4.40137C8.05597 5.03922 7.37278 5.44202 6.63194 5.51895C4.87243 5.70166 3.49951 7.19146 3.49951 9ZM6.99902 11C5.89445 11 4.99902 10.1046 4.99902 9C4.99902 7.9679 5.78323 7.11509 6.78637 7.01093C7.9654 6.8885 9.05589 6.24759 9.72826 5.22607C10.2186 4.48117 11.0533 4 11.999 4C13.3284 4 14.4402 4.95884 14.6695 6.22337C14.9681 7.87037 16.4051 9 17.999 9C18.5513 9 18.999 9.44772 18.999 10C18.999 10.5523 18.5513 11 17.999 11H6.99902ZM17.25 23C16.8358 23 16.5 22.6642 16.5 22.25C16.5 21.8358 16.8358 21.5 17.25 21.5H19.75C20.1642 21.5 20.5 21.1642 20.5 20.75C20.5 20.3358 20.1642 20 19.75 20H6.75C6.33579 20 6 19.6642 6 19.25C6 18.8358 6.33579 18.5 6.75 18.5H19.75C20.9926 18.5 22 19.5074 22 20.75C22 21.9926 20.9926 23 19.75 23H17.25ZM13.5 17H19.7502C20.9929 17 22.0002 15.9926 22.0002 14.75C22.0002 13.5074 20.9929 12.5 19.7502 12.5H16.2502C15.836 12.5 15.5002 12.8358 15.5002 13.25C15.5002 13.6642 15.836 14 16.2502 14H19.7502C20.1644 14 20.5002 14.3358 20.5002 14.75C20.5002 15.1642 20.1644 15.5 19.7502 15.5H14.1747C14.0622 16.0542 13.8275 16.5639 13.5 17ZM9 12.5C8.58579 12.5 8.25 12.8358 8.25 13.25C8.25 13.6642 8.58579 14 9 14H10.5C10.9142 14 11.25 14.3358 11.25 14.75C11.25 15.1642 10.9142 15.5 10.5 15.5H2.75C2.33579 15.5 2 15.8358 2 16.25C2 16.6642 2.33579 17 2.75 17H10.5C11.7426 17 12.75 15.9926 12.75 14.75C12.75 13.5074 11.7426 12.5 10.5 12.5H9Z"
          fill="black"/>
</svg>
